<?xml version="1.0" encoding="UTF-8"?><svg id="Layer_1" xmlns="http://www.w3.org/2000/svg" viewBox="0 0 576 448"><defs><style>.cls-1{fill:#d4af37;stroke-width:0px;}</style></defs><path class="cls-1" d="m309,74c11.4-7,19-19.7,19-34,0-22.1-17.9-40-40-40s-40,17.9-40,40c0,14.4,7.6,27,19,34l-57.3,114.6c-9.1,18.2-32.7,23.4-48.6,10.7l-89.1-71.3c5-6.7,8-15,8-24,0-22.1-17.9-40-40-40S0,81.9,0,104s17.9,40,40,40h.7l45.7,251.4c5.5,30.4,32,52.6,63,52.6h277.2c30.9,0,57.4-22.1,63-52.6l45.7-251.4h.7c22.1,0,40-17.9,40-40s-17.9-40-40-40-40,17.9-40,40c0,9,3,17.3,8,24l-89.1,71.3c-15.9,12.7-39.5,7.5-48.6-10.7,0,0-57.3-114.6-57.3-114.6Z"/></svg>