<?xml version="1.0" encoding="UTF-8"?><svg id="Layer_1" xmlns="http://www.w3.org/2000/svg" viewBox="0 0 14 16"><defs><style>.cls-1{fill:#fff;stroke-width:0px;}</style></defs><path class="cls-1" d="m13.74,7.38L7.62,1.27c-.35-.35-.92-.35-1.28,0l-1.27,1.27,1.61,1.61c.85-.28,1.65.53,1.36,1.37l1.55,1.55c1.07-.37,1.91.97,1.11,1.77s-2.19-.09-1.75-1.17l-1.45-1.45v3.81c.79.39.7,1.31.28,1.72-.42.42-1.1.42-1.52,0,0,0,0,0,0,0-.55-.55-.35-1.47.35-1.75v-3.84c-.65-.27-.77-.96-.58-1.41l-1.59-1.59L.27,7.35c-.35.35-.35.92,0,1.27l6.11,6.11c.35.35.92.35,1.28,0l6.08-6.08c.35-.35.35-.92,0-1.28h0Z"/></svg>