<?xml version="1.0" encoding="UTF-8"?><svg id="Layer_1" xmlns="http://www.w3.org/2000/svg" viewBox="0 0 20 16"><defs><style>.cls-1{fill:#fff;stroke-width:0px;}</style></defs><path class="cls-1" d="m2,3c0-1.1.9-2,2-2h12c1.1,0,2,.9,2,2v8h-2V3H4v8h-2V3ZM0,12.6c0-.33.27-.6.6-.6h18.8c.33,0,.6.27.6.6,0,1.32-1.08,2.4-2.4,2.4H2.4c-1.33,0-2.4-1.07-2.4-2.4Zm8.78-6.07l-.97.97.97.97c.29.29.29.77,0,1.06s-.77.29-1.06,0l-1.5-1.5c-.29-.29-.29-.77,0-1.06l1.5-1.5c.29-.29.77-.29,1.06,0s.29.77,0,1.06h0Zm3.5-1.06l1.5,1.5c.29.29.29.77,0,1.06l-1.5,1.5c-.29.29-.77.29-1.06,0s-.29-.77,0-1.06l.97-.97-.97-.97c-.29-.29-.29-.77,0-1.06s.77-.29,1.06,0h0Z"/></svg>