<?xml version="1.0" encoding="UTF-8"?><svg id="Layer_1" xmlns="http://www.w3.org/2000/svg" viewBox="0 0 16 16"><defs><style>.cls-1{fill:#fff;stroke-width:0px;}</style></defs><path class="cls-1" d="m4.75,1.19c.31.28.33.75.06,1.06l-2.25,2.5c-.14.15-.33.24-.54.25s-.4-.07-.55-.22L.22,3.53c-.29-.29-.29-.77,0-1.06.29-.29.77-.29,1.06,0l.69.69,1.72-1.91c.28-.31.75-.33,1.06-.06h0Zm0,5c.31.28.33.75.06,1.06l-2.25,2.5c-.14.15-.33.24-.54.25s-.4-.07-.55-.22l-1.25-1.25c-.29-.29-.29-.77,0-1.06s.77-.29,1.06,0l.69.69,1.72-1.91c.28-.31.75-.33,1.06-.06h0Zm2.25-3.19c0-.55.45-1,1-1h7c.55,0,1,.45,1,1s-.45,1-1,1h-7c-.55,0-1-.45-1-1Zm0,5c0-.55.45-1,1-1h7c.55,0,1,.45,1,1s-.45,1-1,1h-7c-.55,0-1-.45-1-1Zm-2,5c0-.55.45-1,1-1h9c.55,0,1,.45,1,1s-.45,1-1,1H6c-.55,0-1-.45-1-1Zm-3.5-1.5c.83,0,1.5.67,1.5,1.5s-.67,1.5-1.5,1.5-1.5-.67-1.5-1.5.67-1.5,1.5-1.5Z"/></svg>