<?xml version="1.0" encoding="UTF-8"?><svg id="Layer_1" xmlns="http://www.w3.org/2000/svg" viewBox="0 0 41.28 21.14"><defs><style>.cls-1,.cls-2{stroke-linejoin:round;}.cls-1,.cls-2,.cls-3,.cls-4{fill:none;stroke:#0d1318;}.cls-1,.cls-2,.cls-4{stroke-linecap:round;}.cls-2{stroke-width:.5px;}</style></defs><circle class="cls-3" cx="9.66" cy="16.98" r="3.66"/><circle class="cls-3" cx="31.63" cy="16.98" r="3.66"/><line class="cls-4" x1=".5" y1="7.82" x2="31.63" y2="7.82"/><line class="cls-1" x1="13.32" y1="16.98" x2="27.97" y2="16.98"/><polyline class="cls-1" points="35.29 16.98 38.95 16.98 40.78 16.98 40.78 9.66 38.95 7.82 31.63 7.82 24.3 .5 5.99 .5 .5 7.82 .5 13.32 4.16 16.98 5.99 16.98"/><polyline class="cls-2" points="20.64 2.33 22.47 2.33 26.14 5.99 20.64 5.99 20.64 2.33"/><polyline class="cls-2" points="18.81 2.33 18.81 5.99 11.49 5.99 11.49 2.33 18.81 2.33"/><polyline class="cls-2" points="9.66 2.33 9.66 5.99 4.16 5.99 7.82 2.33 9.66 2.33"/></svg>