<?xml version="1.0" encoding="UTF-8"?><svg id="Layer_1" xmlns="http://www.w3.org/2000/svg" viewBox="0 0 20 16"><defs><style>.cls-1{fill:#fff;stroke-width:0px;}</style></defs><path class="cls-1" d="m7,0c2.21,0,4,1.79,4,4s-1.79,4-4,4-4-1.79-4-4S4.79,0,7,0Zm-1.43,9.5h2.86c.37,0,.73.04,1.08.1-.07.58.23,1.11.68,1.4-.52.33-.83.99-.62,1.67.12.4.29.8.51,1.18s.48.72.76,1.03c.49.53,1.24.57,1.79.27v.03c0,.29.08.58.25.82H.93c-.51,0-.93-.41-.93-.92,0-3.08,2.49-5.57,5.57-5.57Zm8.05-2.68c0-.22.14-.42.35-.46.33-.07.67-.12,1.02-.12s.69.04,1.02.12c.21.05.35.24.35.46v.55c0,.24.15.46.36.58.21.12.47.14.68.02l.43-.25c.19-.11.43-.08.58.07.24.25.45.54.63.85s.32.64.42.97c.07.21-.03.43-.23.54l-.45.26c-.2.12-.31.34-.31.57s.11.46.31.57l.45.26c.19.11.29.33.23.54-.1.33-.24.66-.42.97s-.39.6-.63.85c-.15.16-.39.18-.58.07l-.43-.25c-.21-.12-.47-.1-.68.02-.21.12-.36.34-.36.58v.55c0,.22-.14.42-.35.46-.33.07-.67.12-1.02.12s-.69-.04-1.02-.12c-.21-.05-.35-.24-.35-.46v-.55c0-.25-.15-.47-.37-.59-.21-.12-.48-.14-.69-.02l-.42.24c-.19.11-.43.08-.58-.07-.24-.25-.45-.54-.63-.85s-.32-.64-.42-.97c-.07-.21.03-.43.23-.54l.44-.25c.2-.12.32-.35.32-.58s-.11-.46-.32-.58l-.44-.25c-.19-.11-.29-.33-.23-.54.1-.33.24-.66.42-.97s.39-.6.63-.85c.15-.16.39-.18.58-.07l.43.24c.21.12.48.1.69-.02.22-.12.37-.34.37-.59v-.54h0Zm2.88,4.17c.04-.83-.6-1.53-1.43-1.57-.83-.04-1.53.6-1.57,1.43,0,.05,0,.09,0,.14-.04.83.6,1.53,1.43,1.57.83.04,1.53-.6,1.57-1.43,0-.05,0-.09,0-.14Z"/></svg>