<?xml version="1.0" encoding="UTF-8"?><svg id="Layer_1" xmlns="http://www.w3.org/2000/svg" viewBox="0 0 512 448"><defs><style>.cls-1{fill:#0d1318;stroke-width:0px;}</style></defs><path class="cls-1" d="m135.2,85.4l-26.1,74.6h293.8l-26.1-74.6c-4.5-12.8-16.6-21.4-30.2-21.4h-181.2c-13.6,0-25.7,8.6-30.2,21.4Zm-95.6,79.4l35.2-100.5C88.3,25.8,124.6,0,165.4,0h181.2c40.8,0,77.1,25.8,90.6,64.3l35.2,100.5c23.2,9.6,39.6,32.5,39.6,59.2v192c0,17.7-14.3,32-32,32h-32c-17.7,0-32-14.3-32-32v-48H96v48c0,17.7-14.3,32-32,32h-32c-17.7,0-32-14.3-32-32v-192c0-26.7,16.4-49.6,39.6-59.2Zm88.4,91.2c0-17.67-14.33-32-32-32s-32,14.33-32,32,14.33,32,32,32,32-14.33,32-32Zm288,32c17.67,0,32-14.33,32-32s-14.33-32-32-32-32,14.33-32,32,14.33,32,32,32Z"/></svg>