<?xml version="1.0" encoding="UTF-8"?><svg id="Layer_1" xmlns="http://www.w3.org/2000/svg" viewBox="0 0 61.8 95"><defs><style>.cls-1{fill:#0d1318;stroke-width:0px;}</style></defs><path class="cls-1" d="m19.9,12.9c.4.8,1.2,1.4,2,1.4.3,0,.6-.1.8-.2,1.1-.5,1.7-1.7,1.2-2.9l-2.1-5.1c-.4-1.1-1.7-1.6-2.9-1.2-1.1.5-1.7,1.7-1.2,2.9l2.2,5.1Z"/><path class="cls-1" d="m39.1,14.1c.3.1.6.2.8.2.9,0,1.7-.5,2-1.4l2.1-5.1c.5-1.1-.1-2.4-1.2-2.9-1.1-.5-2.4.1-2.9,1.2l-2,5.1c-.5,1.1,0,2.4,1.2,2.9Z"/><path class="cls-1" d="m30.9,12.5c1.2,0,2.2-1,2.2-2.2V2.2c0-1.2-1-2.2-2.2-2.2s-2.2,1-2.2,2.2v8.1c0,1.2,1,2.2,2.2,2.2Z"/><path class="cls-1" d="m24.2,69l-9.7-11.2c-.4-.5-1-.8-1.7-.9-.7,0-1.3.2-1.8.6-.8.8-1.1,2-.6,3l.3.5c1.5,2.9,3.2,5.7,5.2,8.3l1.7,2.3c.3.4.4.8.3,1.2-.1.4-.3.8-.7,1.1-.4.3-.8.4-1.2.3s-.8-.3-1.1-.7l-1.8-2c-2.1-2.8-3.9-5.7-5.5-8.8l-.3-.5c-1.2-2.4-.7-5.3,1.3-7,.2-.1.3-.3.5-.4l-3.5-8.9c-.4-1-1.4-1.8-2.5-1.8-.8-.1-1.6.2-2.2.8s-.9,1.3-.9,2.2l.4,23c0,2.2.9,4.2,2.4,5.7l8.7,8.9h14.7l-.3-11.3c0-1.6-.7-3.1-1.7-4.4Z"/><path class="cls-1" d="m11.7,93.6c0,.8.6,1.4,1.4,1.4h11.7c.8,0,1.4-.6,1.4-1.4v-5.8h-14.5v5.8Z"/><path class="cls-1" d="m60.9,44.8c-.6-.6-1.4-.9-2.2-.8-1.1.1-2.1.8-2.5,1.8l-3.5,8.9c.2.1.3.2.5.4,2,1.8,2.5,4.7,1.3,7l-.3.5c-1.6,3.1-3.4,6-5.5,8.8l-1.7,2.2c-.3.4-.7.6-1.1.7s-.9,0-1.2-.3c-.4-.3-.6-.7-.7-1.1s0-.9.3-1.2l1.7-2.3c2-2.6,3.7-5.4,5.2-8.3l.3-.5c.5-1,.3-2.2-.6-3-.5-.4-1.1-.7-1.8-.6-.7.1-1.3.4-1.7.9l-9.7,11.2c-1.1,1.2-1.7,2.8-1.8,4.4l-.3,11.2h14.7l8.7-8.9c1.5-1.5,2.4-3.6,2.4-5.7l.4-23c0-.9-.3-1.7-.9-2.3Z"/><path class="cls-1" d="m35.6,93.6c0,.8.6,1.4,1.4,1.4h11.7c.8,0,1.4-.6,1.4-1.4v-5.8h-14.5v5.8Z"/><polygon class="cls-1" points="34.7 20.3 27.1 20.3 22.7 30.4 39.1 30.4 34.7 20.3"/><polygon class="cls-1" points="22.6 20.3 11.8 20.3 5 30.4 18.2 30.4 22.6 20.3"/><polygon class="cls-1" points="56.8 30.4 50 20.3 39.2 20.3 43.6 30.4 56.8 30.4"/><polygon class="cls-1" points="22.3 34.6 30.9 64.3 39.5 34.6 22.3 34.6"/><polygon class="cls-1" points="5.3 34.6 25.8 61.6 18 34.6 5.3 34.6"/><polygon class="cls-1" points="36 61.6 56.5 34.6 43.8 34.6 36 61.6"/></svg>